<?xml version="1.0" encoding="utf-8"?>
<svg xmlns="http://www.w3.org/2000/svg" xmlns:xlink="http://www.w3.org/1999/xlink" width="600" height="400" viewBox="0 0 2400 1600">
<defs>
  <clipPath id="clip2400">
    <rect x="0" y="0" width="2000" height="2000"/>
  </clipPath>
</defs>
<defs>
  <clipPath id="clip2401">
    <rect x="0" y="0" width="2400" height="1600"/>
  </clipPath>
</defs>
<polygon clip-path="url(#clip2401)" points="
0,1600 2400,1600 2400,0 0,0 
  " fill="#ffffff" fill-rule="evenodd" fill-opacity="1"/>
<defs>
  <clipPath id="clip2402">
    <rect x="480" y="0" width="1681" height="1600"/>
  </clipPath>
</defs>
<polygon clip-path="url(#clip2401)" points="
174.775,1503.47 2321.26,1503.47 2321.26,47.2441 174.775,47.2441 
  " fill="#ffffff" fill-rule="evenodd" fill-opacity="1"/>
<defs>
  <clipPath id="clip2403">
    <rect x="174" y="47" width="2147" height="1457"/>
  </clipPath>
</defs>
<polyline clip-path="url(#clip2403)" style="stroke:#000000; stroke-width:2; stroke-opacity:0.1; fill:none" points="
  174.775,1503.47 174.775,47.2441 
  "/>
<polyline clip-path="url(#clip2403)" style="stroke:#000000; stroke-width:2; stroke-opacity:0.1; fill:none" points="
  711.396,1503.47 711.396,47.2441 
  "/>
<polyline clip-path="url(#clip2403)" style="stroke:#000000; stroke-width:2; stroke-opacity:0.1; fill:none" points="
  1248.02,1503.47 1248.02,47.2441 
  "/>
<polyline clip-path="url(#clip2403)" style="stroke:#000000; stroke-width:2; stroke-opacity:0.1; fill:none" points="
  1784.64,1503.47 1784.64,47.2441 
  "/>
<polyline clip-path="url(#clip2403)" style="stroke:#000000; stroke-width:2; stroke-opacity:0.1; fill:none" points="
  2321.26,1503.47 2321.26,47.2441 
  "/>
<polyline clip-path="url(#clip2403)" style="stroke:#000000; stroke-width:2; stroke-opacity:0.1; fill:none" points="
  174.775,1503.47 2321.26,1503.47 
  "/>
<polyline clip-path="url(#clip2403)" style="stroke:#000000; stroke-width:2; stroke-opacity:0.1; fill:none" points="
  174.775,1139.42 2321.26,1139.42 
  "/>
<polyline clip-path="url(#clip2403)" style="stroke:#000000; stroke-width:2; stroke-opacity:0.1; fill:none" points="
  174.775,775.359 2321.26,775.359 
  "/>
<polyline clip-path="url(#clip2403)" style="stroke:#000000; stroke-width:2; stroke-opacity:0.1; fill:none" points="
  174.775,411.302 2321.26,411.302 
  "/>
<polyline clip-path="url(#clip2403)" style="stroke:#000000; stroke-width:2; stroke-opacity:0.1; fill:none" points="
  174.775,47.2441 2321.26,47.2441 
  "/>
<polyline clip-path="url(#clip2401)" style="stroke:#000000; stroke-width:4; stroke-opacity:1; fill:none" points="
  174.775,1503.47 2321.26,1503.47 
  "/>
<polyline clip-path="url(#clip2401)" style="stroke:#000000; stroke-width:4; stroke-opacity:1; fill:none" points="
  174.775,1503.47 174.775,47.2441 
  "/>
<polyline clip-path="url(#clip2401)" style="stroke:#000000; stroke-width:4; stroke-opacity:1; fill:none" points="
  174.775,1503.47 174.775,1481.63 
  "/>
<polyline clip-path="url(#clip2401)" style="stroke:#000000; stroke-width:4; stroke-opacity:1; fill:none" points="
  711.396,1503.47 711.396,1481.63 
  "/>
<polyline clip-path="url(#clip2401)" style="stroke:#000000; stroke-width:4; stroke-opacity:1; fill:none" points="
  1248.02,1503.47 1248.02,1481.63 
  "/>
<polyline clip-path="url(#clip2401)" style="stroke:#000000; stroke-width:4; stroke-opacity:1; fill:none" points="
  1784.64,1503.47 1784.64,1481.63 
  "/>
<polyline clip-path="url(#clip2401)" style="stroke:#000000; stroke-width:4; stroke-opacity:1; fill:none" points="
  2321.26,1503.47 2321.26,1481.63 
  "/>
<polyline clip-path="url(#clip2401)" style="stroke:#000000; stroke-width:4; stroke-opacity:1; fill:none" points="
  174.775,1503.47 206.972,1503.47 
  "/>
<polyline clip-path="url(#clip2401)" style="stroke:#000000; stroke-width:4; stroke-opacity:1; fill:none" points="
  174.775,1139.42 206.972,1139.42 
  "/>
<polyline clip-path="url(#clip2401)" style="stroke:#000000; stroke-width:4; stroke-opacity:1; fill:none" points="
  174.775,775.359 206.972,775.359 
  "/>
<polyline clip-path="url(#clip2401)" style="stroke:#000000; stroke-width:4; stroke-opacity:1; fill:none" points="
  174.775,411.302 206.972,411.302 
  "/>
<polyline clip-path="url(#clip2401)" style="stroke:#000000; stroke-width:4; stroke-opacity:1; fill:none" points="
  174.775,47.2441 206.972,47.2441 
  "/>
<g clip-path="url(#clip2401)">
<text style="fill:#000000; fill-opacity:1; font-family:Arial,Helvetica Neue,Helvetica,sans-serif; font-size:48px; text-anchor:middle;" transform="rotate(0, 174.775, 1557.47)" x="174.775" y="1557.47">0</text>
</g>
<g clip-path="url(#clip2401)">
<text style="fill:#000000; fill-opacity:1; font-family:Arial,Helvetica Neue,Helvetica,sans-serif; font-size:48px; text-anchor:middle;" transform="rotate(0, 711.396, 1557.47)" x="711.396" y="1557.47">50</text>
</g>
<g clip-path="url(#clip2401)">
<text style="fill:#000000; fill-opacity:1; font-family:Arial,Helvetica Neue,Helvetica,sans-serif; font-size:48px; text-anchor:middle;" transform="rotate(0, 1248.02, 1557.47)" x="1248.02" y="1557.47">100</text>
</g>
<g clip-path="url(#clip2401)">
<text style="fill:#000000; fill-opacity:1; font-family:Arial,Helvetica Neue,Helvetica,sans-serif; font-size:48px; text-anchor:middle;" transform="rotate(0, 1784.64, 1557.47)" x="1784.64" y="1557.47">150</text>
</g>
<g clip-path="url(#clip2401)">
<text style="fill:#000000; fill-opacity:1; font-family:Arial,Helvetica Neue,Helvetica,sans-serif; font-size:48px; text-anchor:middle;" transform="rotate(0, 2321.26, 1557.47)" x="2321.26" y="1557.47">200</text>
</g>
<g clip-path="url(#clip2401)">
<text style="fill:#000000; fill-opacity:1; font-family:Arial,Helvetica Neue,Helvetica,sans-serif; font-size:48px; text-anchor:end;" transform="rotate(0, 150.775, 1520.97)" x="150.775" y="1520.97">0</text>
</g>
<g clip-path="url(#clip2401)">
<text style="fill:#000000; fill-opacity:1; font-family:Arial,Helvetica Neue,Helvetica,sans-serif; font-size:48px; text-anchor:end;" transform="rotate(0, 150.775, 1156.92)" x="150.775" y="1156.92">50</text>
</g>
<g clip-path="url(#clip2401)">
<text style="fill:#000000; fill-opacity:1; font-family:Arial,Helvetica Neue,Helvetica,sans-serif; font-size:48px; text-anchor:end;" transform="rotate(0, 150.775, 792.859)" x="150.775" y="792.859">100</text>
</g>
<g clip-path="url(#clip2401)">
<text style="fill:#000000; fill-opacity:1; font-family:Arial,Helvetica Neue,Helvetica,sans-serif; font-size:48px; text-anchor:end;" transform="rotate(0, 150.775, 428.802)" x="150.775" y="428.802">150</text>
</g>
<g clip-path="url(#clip2401)">
<text style="fill:#000000; fill-opacity:1; font-family:Arial,Helvetica Neue,Helvetica,sans-serif; font-size:48px; text-anchor:end;" transform="rotate(0, 150.775, 64.7441)" x="150.775" y="64.7441">200</text>
</g>
<circle clip-path="url(#clip2403)" style="fill:#000000; stroke:none; fill-opacity:1" cx="1248.02" cy="927.39" r="14"/>
<circle clip-path="url(#clip2403)" style="fill:#0000ff; stroke:none; fill-opacity:1" cx="1248.02" cy="927.39" r="10"/>
<polyline clip-path="url(#clip2403)" style="stroke:#0000ff; stroke-width:4; stroke-opacity:1; fill:none" points="
  1248.02,927.39 1248.02,834.191 
  "/>
<polyline clip-path="url(#clip2403)" style="stroke:#0000ff; stroke-width:4; stroke-opacity:1; fill:none" points="
  1230.02,870.191 1248.02,834.191 1266.02,870.191 
  "/>
<polyline clip-path="url(#clip2403)" style="stroke:#0000ff; stroke-width:4; stroke-opacity:1; fill:none" points="
  1248.02,834.191 1248.02,927.39 
  "/>
<circle clip-path="url(#clip2403)" style="fill:#000000; stroke:none; fill-opacity:1" cx="1128.67" cy="779.882" r="14"/>
<circle clip-path="url(#clip2403)" style="fill:#ff0000; stroke:none; fill-opacity:1" cx="1128.67" cy="779.882" r="10"/>
<polyline clip-path="url(#clip2403)" style="stroke:#ff0000; stroke-width:4; stroke-opacity:1; fill:none" points="
  1128.67,779.882 1355.26,779.79 
  "/>
<polyline clip-path="url(#clip2403)" style="stroke:#ff0000; stroke-width:4; stroke-opacity:1; fill:none" points="
  1319.25,761.805 1355.26,779.79 1319.26,797.805 
  "/>
<polyline clip-path="url(#clip2403)" style="stroke:#ff0000; stroke-width:4; stroke-opacity:1; fill:none" points="
  1355.26,779.79 1128.67,779.882 
  "/>
<line clip-path="url(#clip2403)" x1="1194.36" y1="760.797" x2="1170.36" y2="784.797" style="stroke:#000000; stroke-width:4; stroke-opacity:1"/>
<line clip-path="url(#clip2403)" x1="1194.36" y1="760.797" x2="1170.36" y2="736.797" style="stroke:#000000; stroke-width:4; stroke-opacity:1"/>
<line clip-path="url(#clip2403)" x1="1194.36" y1="760.797" x2="1218.36" y2="736.797" style="stroke:#000000; stroke-width:4; stroke-opacity:1"/>
<line clip-path="url(#clip2403)" x1="1194.36" y1="760.797" x2="1218.36" y2="784.797" style="stroke:#000000; stroke-width:4; stroke-opacity:1"/>
<line clip-path="url(#clip2403)" x1="1194.36" y1="760.797" x2="1174.36" y2="780.797" style="stroke:#ff0000; stroke-width:4; stroke-opacity:1"/>
<line clip-path="url(#clip2403)" x1="1194.36" y1="760.797" x2="1174.36" y2="740.797" style="stroke:#ff0000; stroke-width:4; stroke-opacity:1"/>
<line clip-path="url(#clip2403)" x1="1194.36" y1="760.797" x2="1214.36" y2="740.797" style="stroke:#ff0000; stroke-width:4; stroke-opacity:1"/>
<line clip-path="url(#clip2403)" x1="1194.36" y1="760.797" x2="1214.36" y2="780.797" style="stroke:#ff0000; stroke-width:4; stroke-opacity:1"/>
<circle clip-path="url(#clip2403)" style="fill:#000000; stroke:none; fill-opacity:1" cx="1453.11" cy="1131.06" r="14"/>
<circle clip-path="url(#clip2403)" style="fill:#008000; stroke:none; fill-opacity:1" cx="1453.11" cy="1131.06" r="10"/>
<polyline clip-path="url(#clip2403)" style="stroke:#008000; stroke-width:4; stroke-opacity:1; fill:none" points="
  1453.11,1131.06 1711.39,1099.7 
  "/>
<polyline clip-path="url(#clip2403)" style="stroke:#008000; stroke-width:4; stroke-opacity:1; fill:none" points="
  1673.48,1086.17 1711.39,1099.7 1677.82,1121.91 
  "/>
<polyline clip-path="url(#clip2403)" style="stroke:#008000; stroke-width:4; stroke-opacity:1; fill:none" points="
  1711.39,1099.7 1453.11,1131.06 
  "/>
<line clip-path="url(#clip2403)" x1="1548.53" y1="1110.29" x2="1524.53" y2="1134.29" style="stroke:#000000; stroke-width:4; stroke-opacity:1"/>
<line clip-path="url(#clip2403)" x1="1548.53" y1="1110.29" x2="1524.53" y2="1086.29" style="stroke:#000000; stroke-width:4; stroke-opacity:1"/>
<line clip-path="url(#clip2403)" x1="1548.53" y1="1110.29" x2="1572.53" y2="1086.29" style="stroke:#000000; stroke-width:4; stroke-opacity:1"/>
<line clip-path="url(#clip2403)" x1="1548.53" y1="1110.29" x2="1572.53" y2="1134.29" style="stroke:#000000; stroke-width:4; stroke-opacity:1"/>
<line clip-path="url(#clip2403)" x1="1548.53" y1="1110.29" x2="1528.53" y2="1130.29" style="stroke:#008000; stroke-width:4; stroke-opacity:1"/>
<line clip-path="url(#clip2403)" x1="1548.53" y1="1110.29" x2="1528.53" y2="1090.29" style="stroke:#008000; stroke-width:4; stroke-opacity:1"/>
<line clip-path="url(#clip2403)" x1="1548.53" y1="1110.29" x2="1568.53" y2="1090.29" style="stroke:#008000; stroke-width:4; stroke-opacity:1"/>
<line clip-path="url(#clip2403)" x1="1548.53" y1="1110.29" x2="1568.53" y2="1130.29" style="stroke:#008000; stroke-width:4; stroke-opacity:1"/>
<circle clip-path="url(#clip2403)" style="fill:#000000; stroke:none; fill-opacity:1" cx="1487.84" cy="546.229" r="14"/>
<circle clip-path="url(#clip2403)" style="fill:#008000; stroke:none; fill-opacity:1" cx="1487.84" cy="546.229" r="10"/>
<polyline clip-path="url(#clip2403)" style="stroke:#008000; stroke-width:4; stroke-opacity:1; fill:none" points="
  1487.84,546.229 1742.06,548.174 
  "/>
<polyline clip-path="url(#clip2403)" style="stroke:#008000; stroke-width:4; stroke-opacity:1; fill:none" points="
  1706.2,529.899 1742.06,548.174 1705.92,565.898 
  "/>
<polyline clip-path="url(#clip2403)" style="stroke:#008000; stroke-width:4; stroke-opacity:1; fill:none" points="
  1742.06,548.174 1487.84,546.229 
  "/>
<line clip-path="url(#clip2403)" x1="1537.79" y1="549.644" x2="1513.79" y2="573.644" style="stroke:#000000; stroke-width:4; stroke-opacity:1"/>
<line clip-path="url(#clip2403)" x1="1537.79" y1="549.644" x2="1513.79" y2="525.644" style="stroke:#000000; stroke-width:4; stroke-opacity:1"/>
<line clip-path="url(#clip2403)" x1="1537.79" y1="549.644" x2="1561.79" y2="525.644" style="stroke:#000000; stroke-width:4; stroke-opacity:1"/>
<line clip-path="url(#clip2403)" x1="1537.79" y1="549.644" x2="1561.79" y2="573.644" style="stroke:#000000; stroke-width:4; stroke-opacity:1"/>
<line clip-path="url(#clip2403)" x1="1537.79" y1="549.644" x2="1517.79" y2="569.644" style="stroke:#008000; stroke-width:4; stroke-opacity:1"/>
<line clip-path="url(#clip2403)" x1="1537.79" y1="549.644" x2="1517.79" y2="529.644" style="stroke:#008000; stroke-width:4; stroke-opacity:1"/>
<line clip-path="url(#clip2403)" x1="1537.79" y1="549.644" x2="1557.79" y2="529.644" style="stroke:#008000; stroke-width:4; stroke-opacity:1"/>
<line clip-path="url(#clip2403)" x1="1537.79" y1="549.644" x2="1557.79" y2="569.644" style="stroke:#008000; stroke-width:4; stroke-opacity:1"/>
<circle clip-path="url(#clip2403)" style="fill:#000000; stroke:none; fill-opacity:1" cx="1135.78" cy="1064.23" r="14"/>
<circle clip-path="url(#clip2403)" style="fill:#008000; stroke:none; fill-opacity:1" cx="1135.78" cy="1064.23" r="10"/>
<polyline clip-path="url(#clip2403)" style="stroke:#008000; stroke-width:4; stroke-opacity:1; fill:none" points="
  1135.78,1064.23 1297.22,1049.23 
  "/>
<polyline clip-path="url(#clip2403)" style="stroke:#008000; stroke-width:4; stroke-opacity:1; fill:none" points="
  1259.71,1034.64 1297.22,1049.23 1263.04,1070.49 
  "/>
<polyline clip-path="url(#clip2403)" style="stroke:#008000; stroke-width:4; stroke-opacity:1; fill:none" points="
  1297.22,1049.23 1135.78,1064.23 
  "/>
<line clip-path="url(#clip2403)" x1="1140.69" y1="1059.32" x2="1116.69" y2="1083.32" style="stroke:#000000; stroke-width:4; stroke-opacity:1"/>
<line clip-path="url(#clip2403)" x1="1140.69" y1="1059.32" x2="1116.69" y2="1035.32" style="stroke:#000000; stroke-width:4; stroke-opacity:1"/>
<line clip-path="url(#clip2403)" x1="1140.69" y1="1059.32" x2="1164.69" y2="1035.32" style="stroke:#000000; stroke-width:4; stroke-opacity:1"/>
<line clip-path="url(#clip2403)" x1="1140.69" y1="1059.32" x2="1164.69" y2="1083.32" style="stroke:#000000; stroke-width:4; stroke-opacity:1"/>
<line clip-path="url(#clip2403)" x1="1140.69" y1="1059.32" x2="1120.69" y2="1079.32" style="stroke:#008000; stroke-width:4; stroke-opacity:1"/>
<line clip-path="url(#clip2403)" x1="1140.69" y1="1059.32" x2="1120.69" y2="1039.32" style="stroke:#008000; stroke-width:4; stroke-opacity:1"/>
<line clip-path="url(#clip2403)" x1="1140.69" y1="1059.32" x2="1160.69" y2="1039.32" style="stroke:#008000; stroke-width:4; stroke-opacity:1"/>
<line clip-path="url(#clip2403)" x1="1140.69" y1="1059.32" x2="1160.69" y2="1079.32" style="stroke:#008000; stroke-width:4; stroke-opacity:1"/>
<circle clip-path="url(#clip2403)" style="fill:#000000; stroke:none; fill-opacity:1" cx="1561.51" cy="197.313" r="14"/>
<circle clip-path="url(#clip2403)" style="fill:#008000; stroke:none; fill-opacity:1" cx="1561.51" cy="197.313" r="10"/>
<polyline clip-path="url(#clip2403)" style="stroke:#008000; stroke-width:4; stroke-opacity:1; fill:none" points="
  1561.51,197.313 1843.15,187.128 
  "/>
<polyline clip-path="url(#clip2403)" style="stroke:#008000; stroke-width:4; stroke-opacity:1; fill:none" points="
  1806.53,170.441 1843.15,187.128 1807.83,206.417 
  "/>
<polyline clip-path="url(#clip2403)" style="stroke:#008000; stroke-width:4; stroke-opacity:1; fill:none" points="
  1843.15,187.128 1561.51,197.313 
  "/>
<line clip-path="url(#clip2403)" x1="1623.65" y1="207.429" x2="1599.65" y2="231.429" style="stroke:#000000; stroke-width:4; stroke-opacity:1"/>
<line clip-path="url(#clip2403)" x1="1623.65" y1="207.429" x2="1599.65" y2="183.429" style="stroke:#000000; stroke-width:4; stroke-opacity:1"/>
<line clip-path="url(#clip2403)" x1="1623.65" y1="207.429" x2="1647.65" y2="183.429" style="stroke:#000000; stroke-width:4; stroke-opacity:1"/>
<line clip-path="url(#clip2403)" x1="1623.65" y1="207.429" x2="1647.65" y2="231.429" style="stroke:#000000; stroke-width:4; stroke-opacity:1"/>
<line clip-path="url(#clip2403)" x1="1623.65" y1="207.429" x2="1603.65" y2="227.429" style="stroke:#008000; stroke-width:4; stroke-opacity:1"/>
<line clip-path="url(#clip2403)" x1="1623.65" y1="207.429" x2="1603.65" y2="187.429" style="stroke:#008000; stroke-width:4; stroke-opacity:1"/>
<line clip-path="url(#clip2403)" x1="1623.65" y1="207.429" x2="1643.65" y2="187.429" style="stroke:#008000; stroke-width:4; stroke-opacity:1"/>
<line clip-path="url(#clip2403)" x1="1623.65" y1="207.429" x2="1643.65" y2="227.429" style="stroke:#008000; stroke-width:4; stroke-opacity:1"/>
<circle clip-path="url(#clip2403)" style="fill:#000000; stroke:none; fill-opacity:1" cx="1514.75" cy="144.246" r="14"/>
<circle clip-path="url(#clip2403)" style="fill:#008000; stroke:none; fill-opacity:1" cx="1514.75" cy="144.246" r="10"/>
<polyline clip-path="url(#clip2403)" style="stroke:#008000; stroke-width:4; stroke-opacity:1; fill:none" points="
  1514.75,144.246 1750.02,110.435 
  "/>
<polyline clip-path="url(#clip2403)" style="stroke:#008000; stroke-width:4; stroke-opacity:1; fill:none" points="
  1711.83,97.7387 1750.02,110.435 1716.95,133.373 
  "/>
<polyline clip-path="url(#clip2403)" style="stroke:#008000; stroke-width:4; stroke-opacity:1; fill:none" points="
  1750.02,110.435 1514.75,144.246 
  "/>
<line clip-path="url(#clip2403)" x1="1548.53" y1="127.337" x2="1524.53" y2="151.337" style="stroke:#000000; stroke-width:4; stroke-opacity:1"/>
<line clip-path="url(#clip2403)" x1="1548.53" y1="127.337" x2="1524.53" y2="103.337" style="stroke:#000000; stroke-width:4; stroke-opacity:1"/>
<line clip-path="url(#clip2403)" x1="1548.53" y1="127.337" x2="1572.53" y2="103.337" style="stroke:#000000; stroke-width:4; stroke-opacity:1"/>
<line clip-path="url(#clip2403)" x1="1548.53" y1="127.337" x2="1572.53" y2="151.337" style="stroke:#000000; stroke-width:4; stroke-opacity:1"/>
<line clip-path="url(#clip2403)" x1="1548.53" y1="127.337" x2="1528.53" y2="147.337" style="stroke:#008000; stroke-width:4; stroke-opacity:1"/>
<line clip-path="url(#clip2403)" x1="1548.53" y1="127.337" x2="1528.53" y2="107.337" style="stroke:#008000; stroke-width:4; stroke-opacity:1"/>
<line clip-path="url(#clip2403)" x1="1548.53" y1="127.337" x2="1568.53" y2="107.337" style="stroke:#008000; stroke-width:4; stroke-opacity:1"/>
<line clip-path="url(#clip2403)" x1="1548.53" y1="127.337" x2="1568.53" y2="147.337" style="stroke:#008000; stroke-width:4; stroke-opacity:1"/>
<circle clip-path="url(#clip2403)" style="fill:#000000; stroke:none; fill-opacity:1" cx="1100.18" cy="1319.47" r="14"/>
<circle clip-path="url(#clip2403)" style="fill:#008000; stroke:none; fill-opacity:1" cx="1100.18" cy="1319.47" r="10"/>
<polyline clip-path="url(#clip2403)" style="stroke:#008000; stroke-width:4; stroke-opacity:1; fill:none" points="
  1100.18,1319.47 824.509,1357.71 
  "/>
<polyline clip-path="url(#clip2403)" style="stroke:#008000; stroke-width:4; stroke-opacity:1; fill:none" points="
  862.641,1370.59 824.509,1357.71 857.694,1334.94 
  "/>
<polyline clip-path="url(#clip2403)" style="stroke:#008000; stroke-width:4; stroke-opacity:1; fill:none" points="
  824.509,1357.71 1100.18,1319.47 
  "/>
<line clip-path="url(#clip2403)" x1="1054.83" y1="1343.29" x2="1030.83" y2="1367.29" style="stroke:#000000; stroke-width:4; stroke-opacity:1"/>
<line clip-path="url(#clip2403)" x1="1054.83" y1="1343.29" x2="1030.83" y2="1319.29" style="stroke:#000000; stroke-width:4; stroke-opacity:1"/>
<line clip-path="url(#clip2403)" x1="1054.83" y1="1343.29" x2="1078.83" y2="1319.29" style="stroke:#000000; stroke-width:4; stroke-opacity:1"/>
<line clip-path="url(#clip2403)" x1="1054.83" y1="1343.29" x2="1078.83" y2="1367.29" style="stroke:#000000; stroke-width:4; stroke-opacity:1"/>
<line clip-path="url(#clip2403)" x1="1054.83" y1="1343.29" x2="1034.83" y2="1363.29" style="stroke:#008000; stroke-width:4; stroke-opacity:1"/>
<line clip-path="url(#clip2403)" x1="1054.83" y1="1343.29" x2="1034.83" y2="1323.29" style="stroke:#008000; stroke-width:4; stroke-opacity:1"/>
<line clip-path="url(#clip2403)" x1="1054.83" y1="1343.29" x2="1074.83" y2="1323.29" style="stroke:#008000; stroke-width:4; stroke-opacity:1"/>
<line clip-path="url(#clip2403)" x1="1054.83" y1="1343.29" x2="1074.83" y2="1363.29" style="stroke:#008000; stroke-width:4; stroke-opacity:1"/>
<circle clip-path="url(#clip2403)" style="fill:#000000; stroke:none; fill-opacity:1" cx="1273.01" cy="334.403" r="14"/>
<circle clip-path="url(#clip2403)" style="fill:#008000; stroke:none; fill-opacity:1" cx="1273.01" cy="334.403" r="10"/>
<polyline clip-path="url(#clip2403)" style="stroke:#008000; stroke-width:4; stroke-opacity:1; fill:none" points="
  1273.01,334.403 1052.6,386.059 
  "/>
<polyline clip-path="url(#clip2403)" style="stroke:#008000; stroke-width:4; stroke-opacity:1; fill:none" points="
  1091.75,395.37 1052.6,386.059 1083.54,360.319 
  "/>
<polyline clip-path="url(#clip2403)" style="stroke:#008000; stroke-width:4; stroke-opacity:1; fill:none" points="
  1052.6,386.059 1273.01,334.403 
  "/>
<line clip-path="url(#clip2403)" x1="1258.75" y1="323.928" x2="1234.75" y2="347.928" style="stroke:#000000; stroke-width:4; stroke-opacity:1"/>
<line clip-path="url(#clip2403)" x1="1258.75" y1="323.928" x2="1234.75" y2="299.928" style="stroke:#000000; stroke-width:4; stroke-opacity:1"/>
<line clip-path="url(#clip2403)" x1="1258.75" y1="323.928" x2="1282.75" y2="299.928" style="stroke:#000000; stroke-width:4; stroke-opacity:1"/>
<line clip-path="url(#clip2403)" x1="1258.75" y1="323.928" x2="1282.75" y2="347.928" style="stroke:#000000; stroke-width:4; stroke-opacity:1"/>
<line clip-path="url(#clip2403)" x1="1258.75" y1="323.928" x2="1238.75" y2="343.928" style="stroke:#008000; stroke-width:4; stroke-opacity:1"/>
<line clip-path="url(#clip2403)" x1="1258.75" y1="323.928" x2="1238.75" y2="303.928" style="stroke:#008000; stroke-width:4; stroke-opacity:1"/>
<line clip-path="url(#clip2403)" x1="1258.75" y1="323.928" x2="1278.75" y2="303.928" style="stroke:#008000; stroke-width:4; stroke-opacity:1"/>
<line clip-path="url(#clip2403)" x1="1258.75" y1="323.928" x2="1278.75" y2="343.928" style="stroke:#008000; stroke-width:4; stroke-opacity:1"/>
<circle clip-path="url(#clip2403)" style="fill:#000000; stroke:none; fill-opacity:1" cx="1362.76" cy="569.302" r="14"/>
<circle clip-path="url(#clip2403)" style="fill:#008000; stroke:none; fill-opacity:1" cx="1362.76" cy="569.302" r="10"/>
<polyline clip-path="url(#clip2403)" style="stroke:#008000; stroke-width:4; stroke-opacity:1; fill:none" points="
  1362.76,569.302 1224.72,612.083 
  "/>
<polyline clip-path="url(#clip2403)" style="stroke:#008000; stroke-width:4; stroke-opacity:1; fill:none" points="
  1264.44,618.62 1224.72,612.083 1253.78,584.233 
  "/>
<polyline clip-path="url(#clip2403)" style="stroke:#008000; stroke-width:4; stroke-opacity:1; fill:none" points="
  1224.72,612.083 1362.76,569.302 
  "/>
<line clip-path="url(#clip2403)" x1="1312.41" y1="578.768" x2="1288.41" y2="602.768" style="stroke:#000000; stroke-width:4; stroke-opacity:1"/>
<line clip-path="url(#clip2403)" x1="1312.41" y1="578.768" x2="1288.41" y2="554.768" style="stroke:#000000; stroke-width:4; stroke-opacity:1"/>
<line clip-path="url(#clip2403)" x1="1312.41" y1="578.768" x2="1336.41" y2="554.768" style="stroke:#000000; stroke-width:4; stroke-opacity:1"/>
<line clip-path="url(#clip2403)" x1="1312.41" y1="578.768" x2="1336.41" y2="602.768" style="stroke:#000000; stroke-width:4; stroke-opacity:1"/>
<line clip-path="url(#clip2403)" x1="1312.41" y1="578.768" x2="1292.41" y2="598.768" style="stroke:#008000; stroke-width:4; stroke-opacity:1"/>
<line clip-path="url(#clip2403)" x1="1312.41" y1="578.768" x2="1292.41" y2="558.768" style="stroke:#008000; stroke-width:4; stroke-opacity:1"/>
<line clip-path="url(#clip2403)" x1="1312.41" y1="578.768" x2="1332.41" y2="558.768" style="stroke:#008000; stroke-width:4; stroke-opacity:1"/>
<line clip-path="url(#clip2403)" x1="1312.41" y1="578.768" x2="1332.41" y2="598.768" style="stroke:#008000; stroke-width:4; stroke-opacity:1"/>
<circle clip-path="url(#clip2403)" style="fill:#000000; stroke:none; fill-opacity:1" cx="1024.64" cy="1303.51" r="14"/>
<circle clip-path="url(#clip2403)" style="fill:#008000; stroke:none; fill-opacity:1" cx="1024.64" cy="1303.51" r="10"/>
<polyline clip-path="url(#clip2403)" style="stroke:#008000; stroke-width:4; stroke-opacity:1; fill:none" points="
  1024.64,1303.51 833.259,1322.31 
  "/>
<polyline clip-path="url(#clip2403)" style="stroke:#008000; stroke-width:4; stroke-opacity:1; fill:none" points="
  870.846,1336.7 833.259,1322.31 867.328,1300.88 
  "/>
<polyline clip-path="url(#clip2403)" style="stroke:#008000; stroke-width:4; stroke-opacity:1; fill:none" points="
  833.259,1322.31 1024.64,1303.51 
  "/>
<line clip-path="url(#clip2403)" x1="1001.17" y1="1299.6" x2="977.172" y2="1323.6" style="stroke:#000000; stroke-width:4; stroke-opacity:1"/>
<line clip-path="url(#clip2403)" x1="1001.17" y1="1299.6" x2="977.172" y2="1275.6" style="stroke:#000000; stroke-width:4; stroke-opacity:1"/>
<line clip-path="url(#clip2403)" x1="1001.17" y1="1299.6" x2="1025.17" y2="1275.6" style="stroke:#000000; stroke-width:4; stroke-opacity:1"/>
<line clip-path="url(#clip2403)" x1="1001.17" y1="1299.6" x2="1025.17" y2="1323.6" style="stroke:#000000; stroke-width:4; stroke-opacity:1"/>
<line clip-path="url(#clip2403)" x1="1001.17" y1="1299.6" x2="981.172" y2="1319.6" style="stroke:#008000; stroke-width:4; stroke-opacity:1"/>
<line clip-path="url(#clip2403)" x1="1001.17" y1="1299.6" x2="981.172" y2="1279.6" style="stroke:#008000; stroke-width:4; stroke-opacity:1"/>
<line clip-path="url(#clip2403)" x1="1001.17" y1="1299.6" x2="1021.17" y2="1279.6" style="stroke:#008000; stroke-width:4; stroke-opacity:1"/>
<line clip-path="url(#clip2403)" x1="1001.17" y1="1299.6" x2="1021.17" y2="1319.6" style="stroke:#008000; stroke-width:4; stroke-opacity:1"/>
<polygon clip-path="url(#clip2401)" points="
1213.27,251.724 2249.26,251.724 2249.26,130.764 1213.27,130.764 
  " fill="#ffffff" fill-rule="evenodd" fill-opacity="1"/>
<polyline clip-path="url(#clip2401)" style="stroke:#000000; stroke-width:4; stroke-opacity:1; fill:none" points="
  1213.27,251.724 2249.26,251.724 2249.26,130.764 1213.27,130.764 1213.27,251.724 
  "/>
<circle clip-path="url(#clip2401)" style="fill:#000000; stroke:none; fill-opacity:1" cx="1321.27" cy="191.244" r="25"/>
<circle clip-path="url(#clip2401)" style="fill:#0000ff; stroke:none; fill-opacity:1" cx="1321.27" cy="191.244" r="21"/>
<g clip-path="url(#clip2401)">
<text style="fill:#000000; fill-opacity:1; font-family:Arial,Helvetica Neue,Helvetica,sans-serif; font-size:48px; text-anchor:start;" transform="rotate(0, 1405.27, 208.744)" x="1405.27" y="208.744">Step 21 with action 0 reward -107.76</text>
</g>
<g clip-path="url(#clip2401)">
<text style="fill:#000000; fill-opacity:1; font-family:Arial,Helvetica Neue,Helvetica,sans-serif; font-size:48px; text-anchor:middle;" transform="rotate(0, 711.396, 173.961)" x="711.396" y="173.961">R_com 0.00, R_eff 0.00, R_saf -107.76</text>
</g>
<g clip-path="url(#clip2401)">
<text style="fill:#000000; fill-opacity:1; font-family:Arial,Helvetica Neue,Helvetica,sans-serif; font-size:48px; text-anchor:middle;" transform="rotate(0, 711.396, 246.773)" x="711.396" y="246.773">TTC 0.22 seconds, D_min 19.00 meters</text>
</g>
<g clip-path="url(#clip2401)">
<text style="fill:#000000; fill-opacity:1; font-family:Arial,Helvetica Neue,Helvetica,sans-serif; font-size:48px; text-anchor:middle;" transform="rotate(0, 1409, 944.89)" x="1409" y="944.89">v=12.8 m.s-1</text>
</g>
<g clip-path="url(#clip2401)">
<text style="fill:#000000; fill-opacity:1; font-family:Arial,Helvetica Neue,Helvetica,sans-serif; font-size:48px; text-anchor:middle;" transform="rotate(0, 1235.99, 760.976)" x="1235.99" y="760.976">v=21.1 m.s-1</text>
</g>
<g clip-path="url(#clip2401)">
<text style="fill:#000000; fill-opacity:1; font-family:Arial,Helvetica Neue,Helvetica,sans-serif; font-size:48px; text-anchor:middle;" transform="rotate(0, 1560.43, 1112.15)" x="1560.43" y="1112.15">v=24.4 m.s-1</text>
</g>
<g clip-path="url(#clip2401)">
<text style="fill:#000000; fill-opacity:1; font-family:Arial,Helvetica Neue,Helvetica,sans-serif; font-size:48px; text-anchor:middle;" transform="rotate(0, 1595.17, 527.323)" x="1595.17" y="527.323">v=23.7 m.s-1</text>
</g>
<g clip-path="url(#clip2401)">
<text style="fill:#000000; fill-opacity:1; font-family:Arial,Helvetica Neue,Helvetica,sans-serif; font-size:48px; text-anchor:middle;" transform="rotate(0, 1243.1, 1045.33)" x="1243.1" y="1045.33">v=15.2 m.s-1</text>
</g>
<g clip-path="url(#clip2401)">
<text style="fill:#000000; fill-opacity:1; font-family:Arial,Helvetica Neue,Helvetica,sans-serif; font-size:48px; text-anchor:middle;" transform="rotate(0, 1668.83, 178.407)" x="1668.83" y="178.407">v=26.3 m.s-1</text>
</g>
<g clip-path="url(#clip2401)">
<text style="fill:#000000; fill-opacity:1; font-family:Arial,Helvetica Neue,Helvetica,sans-serif; font-size:48px; text-anchor:middle;" transform="rotate(0, 1622.07, 125.34)" x="1622.07" y="125.34">v=22.4 m.s-1</text>
</g>
<g clip-path="url(#clip2401)">
<text style="fill:#000000; fill-opacity:1; font-family:Arial,Helvetica Neue,Helvetica,sans-serif; font-size:48px; text-anchor:middle;" transform="rotate(0, 1207.5, 1300.56)" x="1207.5" y="1300.56">v=26.2 m.s-1</text>
</g>
<g clip-path="url(#clip2401)">
<text style="fill:#000000; fill-opacity:1; font-family:Arial,Helvetica Neue,Helvetica,sans-serif; font-size:48px; text-anchor:middle;" transform="rotate(0, 1380.33, 315.497)" x="1380.33" y="315.497">v=21.7 m.s-1</text>
</g>
<g clip-path="url(#clip2401)">
<text style="fill:#000000; fill-opacity:1; font-family:Arial,Helvetica Neue,Helvetica,sans-serif; font-size:48px; text-anchor:middle;" transform="rotate(0, 1470.08, 550.397)" x="1470.08" y="550.397">v=14.1 m.s-1</text>
</g>
<g clip-path="url(#clip2401)">
<text style="fill:#000000; fill-opacity:1; font-family:Arial,Helvetica Neue,Helvetica,sans-serif; font-size:48px; text-anchor:middle;" transform="rotate(0, 1131.96, 1284.61)" x="1131.96" y="1284.61">v=18.0 m.s-1</text>
</g>
</svg>